<?xml version="1.0" encoding="UTF-8" standalone="no"?>
<svg width="48" height="48" viewBox="0 0 48 48" fill="none" xmlns="http://www.w3.org/2000/svg">
  <rect width="48" height="48" rx="8" fill="#3665F3"/>
  <path d="M14 12H34C35.1 12 36 12.9 36 14V34C36 35.1 35.1 36 34 36H14C12.9 36 12 35.1 12 34V14C12 12.9 12.9 12 14 12Z" fill="white"/>
  <path d="M16 16H32V18H16V16Z" fill="#3665F3"/>
  <path d="M16 21H32V23H16V21Z" fill="#3665F3"/>
  <path d="M16 26H28V28H16V26Z" fill="#3665F3"/>
  <path d="M16 31H24V33H16V31Z" fill="#3665F3"/>
  <path d="M33 31.5L31.5 30L30 31.5L33 34.5L39 28.5L37.5 27L33 31.5Z" fill="#4CAF50"/>
</svg>