<?xml version="1.0" encoding="UTF-8" standalone="no"?>
<svg width="96" height="96" viewBox="0 0 96 96" fill="none" xmlns="http://www.w3.org/2000/svg">
  <rect width="96" height="96" rx="16" fill="#3665F3"/>
  <path d="M28 24H68C70.2 24 72 25.8 72 28V68C72 70.2 70.2 72 68 72H28C25.8 72 24 70.2 24 68V28C24 25.8 25.8 24 28 24Z" fill="white"/>
  <path d="M32 32H64V36H32V32Z" fill="#3665F3"/>
  <path d="M32 42H64V46H32V42Z" fill="#3665F3"/>
  <path d="M32 52H56V56H32V52Z" fill="#3665F3"/>
  <path d="M32 62H48V66H32V62Z" fill="#3665F3"/>
  <path d="M66 63L63 60L60 63L66 69L78 57L75 54L66 63Z" fill="#4CAF50"/>
</svg>