<?xml version="1.0" encoding="UTF-8" standalone="no"?>
<svg width="19" height="19" viewBox="0 0 19 19" fill="none" xmlns="http://www.w3.org/2000/svg">
  <rect width="19" height="19" rx="4" fill="#3665F3"/>
  <path d="M5.5 4.5H13.5C14 4.5 14.5 5 14.5 5.5V13.5C14.5 14 14 14.5 13.5 14.5H5.5C5 14.5 4.5 14 4.5 13.5V5.5C4.5 5 5 4.5 5.5 4.5Z" fill="white"/>
  <path d="M6 6H13V7H6V6Z" fill="#3665F3"/>
  <path d="M6 8.5H13V9.5H6V8.5Z" fill="#3665F3"/>
  <path d="M6 11H11V12H6V11Z" fill="#3665F3"/>
  <path d="M13 12.5L12.5 12L12 12.5L13 13.5L15 11.5L14.5 11L13 12.5Z" fill="#4CAF50"/>
</svg>